<svg width="54" height="54" viewBox="0 0 54 54" fill="none" xmlns="http://www.w3.org/2000/svg">
<path d="M48.3715 5.64215C43.2769 0.56721 35.9516 0 26.9999 0C18.037 0 10.7006 0.573749 5.60818 5.6624C0.516479 10.7489 0 18.0735 0 27.0262C0 35.9804 0.516479 43.3072 5.61029 48.3955C10.7024 53.4849 18.038 54 26.9999 54C35.962 54 43.2963 53.4849 48.3884 48.3955C53.4819 43.3062 53.9999 35.9804 53.9999 27.0262C53.9999 18.062 53.4764 10.7295 48.3715 5.64215Z" fill="black"/>
<path d="M40.5476 8.70968L40.8151 35.4839L32.2258 44.8548L27.468 21.3741L40.5476 8.70968Z" fill="white"/>
<path d="M5.02657 17.7097L17.8043 41.2397L32.2258 44.8548L22.6124 22.4218L5.02657 17.7097Z" fill="white"/>
</svg>
